<?xml version="1.0" encoding="UTF-8" standalone="no"?>
<!-- Created with Inkscape (http://www.inkscape.org/) -->

<svg
   xmlns:dc="http://purl.org/dc/elements/1.1/"
   xmlns:cc="http://creativecommons.org/ns#"
   xmlns:rdf="http://www.w3.org/1999/02/22-rdf-syntax-ns#"
   xmlns:svg="http://www.w3.org/2000/svg"
   xmlns="http://www.w3.org/2000/svg"
   xmlns:sodipodi="http://sodipodi.sourceforge.net/DTD/sodipodi-0.dtd"
   xmlns:inkscape="http://www.inkscape.org/namespaces/inkscape"
   width="1052.3622"
   height="744.09448"
   id="svg2"
   version="1.1"
   inkscape:version="0.48.0 r9654"
   sodipodi:docname="positionStable.eps">
  <defs
     id="defs4">
    <inkscape:path-effect
       is_visible="true"
       id="path-effect3787"
       effect="spiro" />
    <inkscape:path-effect
       effect="spiro"
       id="path-effect2987"
       is_visible="true" />
  </defs>
  <sodipodi:namedview
     id="base"
     pagecolor="#ffffff"
     bordercolor="#666666"
     borderopacity="1.0"
     inkscape:pageopacity="0.0"
     inkscape:pageshadow="2"
     inkscape:zoom="0.7"
     inkscape:cx="419.87229"
     inkscape:cy="383.0806"
     inkscape:document-units="px"
     inkscape:current-layer="layer1"
     showgrid="false"
     inkscape:window-width="1243"
     inkscape:window-height="730"
     inkscape:window-x="38"
     inkscape:window-y="422"
     inkscape:window-maximized="0" />
  <metadata
     id="metadata7">
    <rdf:RDF>
      <cc:Work
         rdf:about="">
        <dc:format>image/svg+xml</dc:format>
        <dc:type
           rdf:resource="http://purl.org/dc/dcmitype/StillImage" />
        <dc:title></dc:title>
      </cc:Work>
    </rdf:RDF>
  </metadata>
  <g
     inkscape:label="Layer 1"
     inkscape:groupmode="layer"
     id="layer1"
     transform="translate(0,-308.2677)">
    <rect
       y="435.21933"
       x="347.14285"
       height="537.14288"
       width="591.42859"
       id="rect3818"
       style="opacity:0.88333333;fill:#ffffff;fill-opacity:1;stroke:#000000;stroke-width:1;stroke-linecap:round;stroke-linejoin:round;stroke-miterlimit:4;stroke-opacity:1;stroke-dasharray:none;stroke-dashoffset:0" />
    <rect
       style="opacity:0.88333333;fill:#ffffff;fill-opacity:1;stroke:#000000;stroke-width:1;stroke-linecap:round;stroke-linejoin:round;stroke-miterlimit:4;stroke-opacity:1;stroke-dasharray:none;stroke-dashoffset:0"
       id="rect3816"
       width="332.85715"
       height="537.14288"
       x="7.1428571"
       y="126.95162"
       transform="translate(0,308.2677)" />
    <path
       style="fill:none;stroke:#000000;stroke-width:1px;stroke-linecap:butt;stroke-linejoin:miter;stroke-opacity:1"
       d="m 41.428571,916.6479 85.714289,-160 -72.857146,-107.14286 64.285716,-191.42857 -25.71429,150 70,38.57143 0,270 0,-271.42857 134.28572,1.42857 1.42857,268.57143 0,0"
       id="path2985"
       inkscape:path-effect="#path-effect2987"
       inkscape:original-d="m 41.428571,916.6479 85.714289,-160 -72.857146,-107.14286 64.285716,-191.42857 -25.71429,150 70,38.57143 0,270 0,-271.42857 134.28572,1.42857 1.42857,268.57143 0,0"
       inkscape:connector-curvature="0" />
    <path
       sodipodi:type="arc"
       style="opacity:0.88333333;fill:#ffffff;stroke:#000000;stroke-width:1;stroke-linecap:round;stroke-linejoin:round;stroke-miterlimit:4;stroke-opacity:1;stroke-dasharray:none;stroke-dashoffset:0"
       id="path2989"
       sodipodi:cx="247.85715"
       sodipodi:cy="246.23734"
       sodipodi:rx="6.4285712"
       sodipodi:ry="7.8571429"
       d="m 254.28572,246.23734 c 0,4.33938 -2.87817,7.85714 -6.42857,7.85714 -3.5504,0 -6.42857,-3.51776 -6.42857,-7.85714 0,-4.33939 2.87817,-7.85715 6.42857,-7.85715 3.5504,0 6.42857,3.51776 6.42857,7.85715 z"
       transform="translate(-85.714286,399.69627)" />
    <path
       transform="translate(-152.85714,361.12484)"
       d="m 254.28572,246.23734 c 0,4.33938 -2.87817,7.85714 -6.42857,7.85714 -3.5504,0 -6.42857,-3.51776 -6.42857,-7.85714 0,-4.33939 2.87817,-7.85715 6.42857,-7.85715 3.5504,0 6.42857,3.51776 6.42857,7.85715 z"
       sodipodi:ry="7.8571429"
       sodipodi:rx="6.4285712"
       sodipodi:cy="246.23734"
       sodipodi:cx="247.85715"
       id="path3759"
       style="opacity:0.88333333;fill:#ffffff;stroke:#000000;stroke-width:1;stroke-linecap:round;stroke-linejoin:round;stroke-miterlimit:4;stroke-opacity:1;stroke-dasharray:none;stroke-dashoffset:0"
       sodipodi:type="arc" />
    <path
       sodipodi:type="arc"
       style="opacity:0.88333333;fill:#ffffff;stroke:#000000;stroke-width:1;stroke-linecap:round;stroke-linejoin:round;stroke-miterlimit:4;stroke-opacity:1;stroke-dasharray:none;stroke-dashoffset:0"
       id="path3761"
       sodipodi:cx="247.85715"
       sodipodi:cy="246.23734"
       sodipodi:rx="6.4285712"
       sodipodi:ry="7.8571429"
       d="m 254.28572,246.23734 c 0,4.33938 -2.87817,7.85714 -6.42857,7.85714 -3.5504,0 -6.42857,-3.51776 -6.42857,-7.85714 0,-4.33939 2.87817,-7.85715 6.42857,-7.85715 3.5504,0 6.42857,3.51776 6.42857,7.85715 z"
       transform="translate(-130,218.2677)" />
    <path
       transform="translate(-192.85714,399.69627)"
       d="m 254.28572,246.23734 c 0,4.33938 -2.87817,7.85714 -6.42857,7.85714 -3.5504,0 -6.42857,-3.51776 -6.42857,-7.85714 0,-4.33939 2.87817,-7.85715 6.42857,-7.85715 3.5504,0 6.42857,3.51776 6.42857,7.85715 z"
       sodipodi:ry="7.8571429"
       sodipodi:rx="6.4285712"
       sodipodi:cy="246.23734"
       sodipodi:cx="247.85715"
       id="path3763"
       style="opacity:0.88333333;fill:#ffffff;stroke:#000000;stroke-width:1;stroke-linecap:round;stroke-linejoin:round;stroke-miterlimit:4;stroke-opacity:1;stroke-dasharray:none;stroke-dashoffset:0"
       sodipodi:type="arc" />
    <path
       sodipodi:type="arc"
       style="opacity:0.88333333;fill:#ffffff;stroke:#000000;stroke-width:1;stroke-linecap:round;stroke-linejoin:round;stroke-miterlimit:4;stroke-opacity:1;stroke-dasharray:none;stroke-dashoffset:0"
       id="path3765"
       sodipodi:cx="247.85715"
       sodipodi:cy="246.23734"
       sodipodi:rx="6.4285712"
       sodipodi:ry="7.8571429"
       d="m 254.28572,246.23734 c 0,4.33938 -2.87817,7.85714 -6.42857,7.85714 -3.5504,0 -6.42857,-3.51776 -6.42857,-7.85714 0,-4.33939 2.87817,-7.85715 6.42857,-7.85715 3.5504,0 6.42857,3.51776 6.42857,7.85715 z"
       transform="translate(-121.42857,511.12484)" />
    <path
       transform="translate(-204.28571,668.2677)"
       d="m 254.28572,246.23734 c 0,4.33938 -2.87817,7.85714 -6.42857,7.85714 -3.5504,0 -6.42857,-3.51776 -6.42857,-7.85714 0,-4.33939 2.87817,-7.85715 6.42857,-7.85715 3.5504,0 6.42857,3.51776 6.42857,7.85715 z"
       sodipodi:ry="7.8571429"
       sodipodi:rx="6.4285712"
       sodipodi:cy="246.23734"
       sodipodi:cx="247.85715"
       id="path3767"
       style="opacity:0.88333333;fill:#ffffff;stroke:#000000;stroke-width:1;stroke-linecap:round;stroke-linejoin:round;stroke-miterlimit:4;stroke-opacity:1;stroke-dasharray:none;stroke-dashoffset:0"
       sodipodi:type="arc" />
    <path
       inkscape:connector-curvature="0"
       inkscape:original-d="m 364.28572,903.79076 87.14286,1.42857 125.71428,0 130,-1.42857 67.14286,-114.28571 12.85714,-138.57143 0,270 0,-271.42857 134.28572,1.42857 1.42857,268.57143 0,0"
       inkscape:path-effect="#path-effect3787"
       id="path3771"
       d="m 364.28572,903.79076 c 29.04343,0.69766 58.09217,1.17387 87.14286,1.42857 41.90356,0.36739 83.81,0.2739 125.71428,0 43.33517,-0.28325 86.66907,-0.75945 130,-1.42857 l 67.14286,-114.28571 12.85714,-138.57143 0,270 0,-271.42857 134.28572,1.42857 1.42857,268.57143 0,0"
       style="fill:none;stroke:#000000;stroke-width:1px;stroke-linecap:butt;stroke-linejoin:miter;stroke-opacity:1"
       sodipodi:nodetypes="ccccccccccc" />
    <path
       transform="translate(460,656.83913)"
       d="m 254.28572,246.23734 c 0,4.33938 -2.87817,7.85714 -6.42857,7.85714 -3.5504,0 -6.42857,-3.51776 -6.42857,-7.85714 0,-4.33939 2.87817,-7.85715 6.42857,-7.85715 3.5504,0 6.42857,3.51776 6.42857,7.85715 z"
       sodipodi:ry="7.8571429"
       sodipodi:rx="6.4285712"
       sodipodi:cy="246.23734"
       sodipodi:cx="247.85715"
       id="path3773"
       style="opacity:0.88333333;fill:#ffffff;stroke:#000000;stroke-width:1;stroke-linecap:round;stroke-linejoin:round;stroke-miterlimit:4;stroke-opacity:1;stroke-dasharray:none;stroke-dashoffset:0"
       sodipodi:type="arc" />
    <path
       sodipodi:type="arc"
       style="opacity:0.88333333;fill:#ffffff;stroke:#000000;stroke-width:1;stroke-linecap:round;stroke-linejoin:round;stroke-miterlimit:4;stroke-opacity:1;stroke-dasharray:none;stroke-dashoffset:0"
       id="path3775"
       sodipodi:cx="247.85715"
       sodipodi:cy="246.23734"
       sodipodi:rx="6.4285712"
       sodipodi:ry="7.8571429"
       d="m 254.28572,246.23734 c 0,4.33938 -2.87817,7.85714 -6.42857,7.85714 -3.5504,0 -6.42857,-3.51776 -6.42857,-7.85714 0,-4.33939 2.87817,-7.85715 6.42857,-7.85715 3.5504,0 6.42857,3.51776 6.42857,7.85715 z"
       transform="translate(317.14286,659.69627)" />
    <path
       transform="translate(525.71428,542.55342)"
       d="m 254.28572,246.23734 c 0,4.33938 -2.87817,7.85714 -6.42857,7.85714 -3.5504,0 -6.42857,-3.51776 -6.42857,-7.85714 0,-4.33939 2.87817,-7.85715 6.42857,-7.85715 3.5504,0 6.42857,3.51776 6.42857,7.85715 z"
       sodipodi:ry="7.8571429"
       sodipodi:rx="6.4285712"
       sodipodi:cy="246.23734"
       sodipodi:cx="247.85715"
       id="path3777"
       style="opacity:0.88333333;fill:#ffffff;stroke:#000000;stroke-width:1;stroke-linecap:round;stroke-linejoin:round;stroke-miterlimit:4;stroke-opacity:1;stroke-dasharray:none;stroke-dashoffset:0"
       sodipodi:type="arc" />
    <path
       sodipodi:type="arc"
       style="opacity:0.88333333;fill:#ffffff;stroke:#000000;stroke-width:1;stroke-linecap:round;stroke-linejoin:round;stroke-miterlimit:4;stroke-opacity:1;stroke-dasharray:none;stroke-dashoffset:0"
       id="path3779"
       sodipodi:cx="247.85715"
       sodipodi:cy="246.23734"
       sodipodi:rx="6.4285712"
       sodipodi:ry="7.8571429"
       d="m 254.28572,246.23734 a 6.4285712,7.8571429 0 1 1 -12.85714,0 6.4285712,7.8571429 0 1 1 12.85714,0 z"
       transform="translate(541.42857,403.98198)" />
    <path
       transform="translate(202.85714,661.12484)"
       d="m 254.28572,246.23734 c 0,4.33938 -2.87817,7.85714 -6.42857,7.85714 -3.5504,0 -6.42857,-3.51776 -6.42857,-7.85714 0,-4.33939 2.87817,-7.85715 6.42857,-7.85715 3.5504,0 6.42857,3.51776 6.42857,7.85715 z"
       sodipodi:ry="7.8571429"
       sodipodi:rx="6.4285712"
       sodipodi:cy="246.23734"
       sodipodi:cx="247.85715"
       id="path3781"
       style="opacity:0.88333333;fill:#ffffff;stroke:#000000;stroke-width:1;stroke-linecap:round;stroke-linejoin:round;stroke-miterlimit:4;stroke-opacity:1;stroke-dasharray:none;stroke-dashoffset:0"
       sodipodi:type="arc" />
    <text
       xml:space="preserve"
       style="font-size:18px;font-style:normal;font-variant:normal;font-weight:normal;font-stretch:normal;line-height:125%;letter-spacing:0px;word-spacing:0px;fill:#000000;fill-opacity:1;stroke:none;font-family:Sans;-inkscape-font-specification:Helvetica"
       x="154.28571"
       y="645.52307"
       id="text3808"
       sodipodi:linespacing="125%"
       transform="translate(0,308.2677)"><tspan
         sodipodi:role="line"
         id="tspan3810"
         x="154.28571"
         y="645.52307">A</tspan></text>
    <text
       xml:space="preserve"
       style="font-size:18px;font-style:normal;font-variant:normal;font-weight:normal;font-stretch:normal;line-height:125%;letter-spacing:0px;word-spacing:0px;fill:#000000;fill-opacity:1;stroke:none;font-family:Sans;-inkscape-font-specification:Helvetica"
       x="661.42859"
       y="949.50507"
       id="text3812"
       sodipodi:linespacing="125%"><tspan
         sodipodi:role="line"
         id="tspan3814"
         x="661.42859"
         y="949.50507">B</tspan></text>
  </g>
</svg>
